<svg width="128" height="34" viewBox="0 0 128 34" fill="none" xmlns="http://www.w3.org/2000/svg">
<path d="M5.30945 33.9975C4.39823 33.9085 3.48574 33.8325 2.57707 33.7251C1.85875 33.64 1.14425 33.5156 0.41705 33.2733C0.598532 33.2104 0.778745 33.1436 0.961496 33.0847C2.92353 32.4495 4.67362 31.4502 6.16355 29.969C6.35899 29.7739 6.70165 29.6403 6.97578 29.6403C8.59008 29.6416 10.193 29.563 11.7451 29.0628C14.9902 28.0177 17.0182 25.2752 17.3469 21.5126C17.5208 19.5246 17.4459 17.5562 16.8012 15.6546C15.7237 12.4734 13.4203 10.8534 10.278 10.4016C9.20813 10.247 8.11416 10.2798 7.03289 10.2012C6.80191 10.1842 6.51256 10.1265 6.3628 9.97199C4.73962 8.30087 2.79154 7.23875 0.593456 6.62583C0.538884 6.61143 0.494466 6.56166 0.300293 6.432C1.18105 6.30758 1.92221 6.16353 2.67098 6.10329C5.96557 5.83612 9.25509 5.69205 12.523 6.41891C18.4612 7.73903 22.0362 11.9627 22.4385 18.2149C22.6238 21.0948 22.4347 23.9315 21.205 26.598C19.4028 30.5047 16.2605 32.5792 12.2718 33.4579C11.1752 33.6989 10.0534 33.8233 8.94289 34.0001C7.73217 33.9975 6.52017 33.9975 5.30945 33.9975Z" fill="white"/>
<path d="M103.24 33.302C101.89 33.302 100.581 33.302 99.245 33.302C98.9683 27.6993 98.6917 22.1149 98.415 16.5293C98.3376 16.5201 98.2589 16.5096 98.1815 16.5004C98.0749 16.7192 97.9581 16.9339 97.8617 17.1566C96.076 21.2741 94.2815 25.3877 92.5226 29.5171C92.3093 30.016 92.0593 30.2138 91.5504 30.1562C91.2205 30.1182 90.8829 30.1496 90.5491 30.1496C89.0985 30.1496 89.115 30.1418 88.5147 28.7457C86.8954 24.9752 85.2607 21.2113 83.63 17.4473C83.4954 17.1383 83.3393 16.8396 83.1122 16.5424C82.4878 22.0953 82.3888 27.6705 82.1565 33.2823C80.7884 33.2823 79.466 33.2823 78.0459 33.2823C78.4292 25.355 78.8962 17.4395 79.8379 9.5174C81.0841 9.5174 82.272 9.49382 83.4586 9.54097C83.6477 9.54883 83.8939 9.83433 83.9967 10.0504C85.4638 13.136 86.9271 16.2228 88.3536 19.328C89.0846 20.9192 89.7394 22.5471 90.4311 24.158C90.511 24.3439 90.6037 24.5247 90.7534 24.8429C91.1735 23.8541 91.52 22.9885 91.9045 22.1411C93.7269 18.1375 95.5659 14.1405 97.3832 10.1342C97.5964 9.66538 97.8655 9.47679 98.3833 9.50167C99.4011 9.54882 100.421 9.51609 101.427 9.51609C101.929 11.4517 103.425 31.0795 103.24 33.302Z" fill="white"/>
<path d="M38.486 16.5017C38.486 22.0834 38.486 27.6638 38.486 33.2862C37.1116 33.2862 35.7879 33.2862 34.4224 33.2862C34.4224 25.3719 34.4224 17.4774 34.4224 9.51732C35.5074 9.51732 36.5684 9.49113 37.6243 9.53959C37.8388 9.55006 38.0863 9.80806 38.2436 10.0137C40.8504 13.4227 43.4723 16.8199 46.0283 20.2682C47.1641 21.8005 48.1617 23.4415 49.3356 25.203C49.3356 19.8858 49.3356 14.7415 49.3356 9.5553C50.7697 9.5553 52.0971 9.5553 53.4792 9.5553C53.4792 17.4407 53.4792 25.3353 53.4792 33.3202C52.3675 33.3202 51.2481 33.3385 50.1313 33.2979C49.9765 33.2927 49.8051 33.0098 49.6859 32.8252C47.0867 28.8006 44.5168 24.7564 41.8898 20.7515C41.0382 19.4536 40.0445 18.2566 39.1117 17.0164C38.9619 16.8173 38.7931 16.6353 38.6332 16.4454C38.5825 16.4637 38.5343 16.4833 38.486 16.5017Z" fill="white"/>
<path d="M77.3582 33.3267C75.9241 33.3267 74.5687 33.3451 73.2146 33.3045C73.0357 33.2992 72.778 33.0321 72.7032 32.8291C72.1397 31.3046 71.6003 29.7697 71.085 28.227C70.9543 27.8341 70.764 27.7031 70.3667 27.7057C67.4656 27.7201 64.5644 27.7241 61.6632 27.7031C61.2178 27.7005 61.0541 27.8812 60.9234 28.2846C60.4335 29.7907 59.8954 31.2798 59.4042 32.7858C59.271 33.1958 59.0857 33.3529 58.6491 33.3398C57.4232 33.3045 56.1959 33.328 54.9053 33.328C54.9611 33.1015 54.989 32.9378 55.0423 32.7819C57.6516 25.1218 60.4474 17.5389 63.775 10.1721C64.0009 9.67184 64.2459 9.46622 64.7941 9.49896C65.6888 9.55397 66.5899 9.54348 67.4846 9.50157C67.9567 9.47931 68.1877 9.65088 68.3666 10.0922C70.4188 15.1868 72.5204 20.2617 74.5383 25.3693C75.4799 27.7529 76.2731 30.1993 77.131 32.6182C77.2034 32.8173 77.2618 33.0203 77.3582 33.3267ZM66.1191 14.215C66.0467 14.215 65.9731 14.215 65.9008 14.215C64.6647 17.5153 63.4286 20.8156 62.1709 24.1723C64.8017 24.1723 67.2651 24.1723 69.8604 24.1723C68.5913 20.7921 67.3552 17.5035 66.1191 14.215Z" fill="white"/>
<path d="M26.2915 9.53418C27.6989 9.53418 29.0302 9.53418 30.4098 9.53418C30.4098 17.4445 30.4098 25.3338 30.4098 33.2755C29.048 33.2755 27.6888 33.2755 26.2915 33.2755C26.2915 25.3665 26.2915 17.4772 26.2915 9.53418Z" fill="white"/>
<path d="M0 28.4924C0 22.7221 0 17.067 0 11.2522C0.411192 11.484 0.774157 11.6543 1.09905 11.8795C2.84154 13.087 3.79972 14.838 4.21091 16.902C4.68302 19.2686 4.65383 21.6351 3.88602 23.9466C3.21719 25.9583 2.00139 27.4971 0 28.4924Z" fill="#CD9A33"/>
<path d="M28.3145 7.8435C27.6457 7.22535 27.0136 6.63993 26.3232 6.00082C27.9553 4.00098 29.5683 2.02603 31.2207 0C32.0786 0.82508 32.8807 1.59647 33.7437 2.42548C31.92 4.24589 30.1318 6.02963 28.3145 7.8435Z" fill="white"/>
<path d="M127.887 19.3384C127.341 13.7567 123.686 9.82246 118.301 9.05239C113.674 8.39102 109.261 10.5834 107.111 14.6092C105.986 16.7151 105.552 18.9874 105.615 21.3696C105.615 21.8424 105.59 22.3165 105.619 22.7867C105.913 27.4818 108.524 33.1709 115.778 33.789C120.289 34.1741 125.392 32.3275 127.344 26.0962C128.034 23.896 128.11 21.629 127.887 19.3384ZM123.602 21.3971C123.584 23.177 123.355 24.9162 122.521 26.5048C121.317 28.7993 119.431 29.9845 116.891 30.0238C114.31 30.0631 112.26 28.997 111.088 26.6148C109.478 23.3459 109.463 19.9316 110.891 16.5986C112.023 13.957 114.154 12.7089 116.948 12.7757C119.778 12.8425 121.963 14.4233 122.881 17.1788C123.328 18.5199 123.602 19.8675 123.602 21.3971C123.616 21.3945 123.631 21.3919 123.602 21.3971Z" fill="white"/>
<path d="M123.605 21.3972C123.573 21.4039 123.589 21.4012 123.605 21.3972V21.3972Z" fill="white"/>
</svg>
